<svg xmlns="http://www.w3.org/2000/svg" viewBox="0 0 119.16 118.05"><defs><style>.cls-1{isolation:isolate;}.cls-2{fill:#fff;}.cls-3{fill:none;stroke-width:2.55px;}.cls-3,.cls-4{stroke:#333;stroke-miterlimit:10;}.cls-4{fill:#333;stroke-width:0.28px;}.cls-5{fill:#faed00;mix-blend-mode:multiply;}</style></defs><g class="cls-1"><g id="Layer_1" data-name="Layer 1"><path d="M37.21,34.27A1.47,1.47,0,0,1,38.84,33,12.5,12.5,0,0,1,46,36.34a1.48,1.48,0,0,1-2,2.14A9.54,9.54,0,0,0,38.5,35.9,1.46,1.46,0,0,1,37.21,34.27Z"/><path d="M75.25,77.33A1.5,1.5,0,0,1,76,76.22a1.48,1.48,0,0,1,2,.53,12.41,12.41,0,0,1,1.62,7.77,1.47,1.47,0,0,1-2.93-.34,9.55,9.55,0,0,0-1.24-5.94A1.57,1.57,0,0,1,75.25,77.33Z"/><path d="M24.94,44A12.53,12.53,0,0,1,38.13,32.91,12.54,12.54,0,0,1,63,34.14a13.73,13.73,0,0,1-1.8,8,4.63,4.63,0,0,0,.44,5.29L70.77,59a4.59,4.59,0,0,0,5,1.65,13.82,13.82,0,0,1,8.22.1,12.54,12.54,0,0,1-4.52,24.48A12.55,12.55,0,0,1,54.64,84a13.87,13.87,0,0,1,1.8-8A4.61,4.61,0,0,0,56,70.68L46.87,59.14a4.61,4.61,0,0,0-5-1.65,13.82,13.82,0,0,1-8.22-.1,12.18,12.18,0,0,1-1.73-.68,1.48,1.48,0,0,1,1.29-2.66,9.15,9.15,0,0,0,1.31.52,10.92,10.92,0,0,0,6.39.13,7.55,7.55,0,0,1,8.32,2.61l9.13,11.54a7.54,7.54,0,0,1,.62,8.7,10.93,10.93,0,0,0-1.34,6.25,9.52,9.52,0,0,0,6.56,8.38,9.65,9.65,0,0,0,8.2-1.06,9.53,9.53,0,0,0,4.37-7.56,1.53,1.53,0,0,1,.56-1.12,1.49,1.49,0,0,1,1.18-.32l.67.11a9.51,9.51,0,0,0,7.76-2.61,9.68,9.68,0,0,0,2.92-7.74,9.52,9.52,0,0,0-6.65-8.31,10.92,10.92,0,0,0-6.39-.13,7.55,7.55,0,0,1-8.32-2.61L59.32,49.29a7.55,7.55,0,0,1-.62-8.7,10.93,10.93,0,0,0,1.35-6.25A9.53,9.53,0,0,0,53.49,26,9.68,9.68,0,0,0,45.28,27a9.53,9.53,0,0,0-4.36,7.52,1.59,1.59,0,0,1-.56,1.14,1.49,1.49,0,0,1-1.19.34l-.67-.12a9.57,9.57,0,0,0-7.76,2.62,9.67,9.67,0,0,0-2.91,7.74,9.18,9.18,0,0,0,.74,3,1.47,1.47,0,0,1-2.7,1.18A12.48,12.48,0,0,1,24.94,44Z"/><circle class="cls-2" cx="78.57" cy="52.7" r="18.52"/><circle class="cls-3" cx="78.57" cy="52.7" r="14.02"/><path class="cls-4" d="M82.17,59.27H71.57v-2h10.6a2.13,2.13,0,0,0,2-1.4l1.35-3.66a.69.69,0,0,0,0-.24.7.7,0,0,0-.7-.7h-4.3V46.88a.61.61,0,0,0-.62-.61.63.63,0,0,0-.56.35l-1.64,3.46a3.82,3.82,0,0,1-3.45,2.19H71.57v-2H74.3A1.83,1.83,0,0,0,76,49.22l1.64-3.46a2.62,2.62,0,0,1,5,1.12v2.39h2.3a2.7,2.7,0,0,1,2.7,2.7,2.73,2.73,0,0,1-.17.93l-1.35,3.66A4.16,4.16,0,0,1,82.17,59.27Z"/><line class="cls-3" x1="83.39" y1="34.75" x2="84.22" y2="29.74"/><line class="cls-3" x1="89.66" y1="36.93" x2="92.57" y2="32.78"/><rect x="38.29" y="64.4" width="2.83" height="7.07"/><rect x="38.29" y="77.13" width="2.83" height="7.07"/><rect x="42.53" y="72.89" width="7.07" height="2.83"/><rect x="29.81" y="72.89" width="7.07" height="2.83"/><circle class="cls-5" cx="81.7" cy="52.7" r="13.6"/></g></g></svg>