<svg xmlns="http://www.w3.org/2000/svg" viewBox="0 0 119.16 118.05"><defs><style>.cls-1{isolation:isolate;}.cls-2,.cls-5{fill:#333;}.cls-3{fill:#fff;}.cls-4{fill:none;stroke-width:2.55px;}.cls-4,.cls-5{stroke:#333;stroke-miterlimit:10;}.cls-5{stroke-width:0.28px;}.cls-6{fill:#faed00;mix-blend-mode:multiply;}</style></defs><g class="cls-1"><g id="Layer_1" data-name="Layer 1"><path class="cls-2" d="M52.56,91.5c-11,0-21.78-2.92-21.78-8.69a1.42,1.42,0,1,1,2.83,0c0,2.52,6.71,5.86,19,5.86a1.42,1.42,0,0,1,0,2.83Z"/><path class="cls-2" d="M53.37,82.59c-10.95,0-22.59-3.11-22.59-8.88a1.42,1.42,0,0,1,2.83,0c0,2.43,6.94,5.78,18.34,6V63.39c-10.51-.25-21.17-3.34-21.17-8.86a1.42,1.42,0,1,1,2.83,0c0,2.52,7.52,6,19.76,6A1.41,1.41,0,0,1,54.78,62V81.18A1.41,1.41,0,0,1,53.37,82.59Z"/><path class="cls-2" d="M55.07,42.5c-8.5,0-16.5-1.5-21.38-4-4.26-2.2-5.15-4.62-5.15-6.26C28.54,25.55,42.21,22,55.07,22S81.6,25.55,81.6,32.23c0,1.64-.89,4.06-5.15,6.26C71.56,41,63.57,42.5,55.07,42.5Zm0-17.72c-13.57,0-23.7,3.93-23.7,7.45,0,1.19,1.32,2.56,3.62,3.74,4.5,2.32,12,3.7,20.08,3.7S70.65,38.29,75.15,36c2.3-1.18,3.62-2.55,3.62-3.74C78.77,28.71,68.63,24.78,55.07,24.78Z"/><path class="cls-2" d="M55.07,52.51c-12.86,0-26.53-3.61-26.53-10.28v-10a1.42,1.42,0,1,1,2.83,0c0,1.19,1.32,2.56,3.62,3.74,4.5,2.32,12,3.7,20.08,3.7S70.65,38.29,75.15,36c2.3-1.18,3.62-2.55,3.62-3.74a1.42,1.42,0,1,1,2.83,0v10C81.6,48.9,67.93,52.51,55.07,52.51ZM31.37,37v5.19c0,3.51,10.13,7.44,23.7,7.44s23.7-3.93,23.7-7.44V37a15.35,15.35,0,0,1-2.32,1.45c-4.89,2.51-12.88,4-21.38,4s-16.5-1.5-21.38-4A15.35,15.35,0,0,1,31.37,37Z"/><path class="cls-2" d="M32.19,84.22a1.41,1.41,0,0,1-1.41-1.41V47.39a1.42,1.42,0,1,1,2.83,0V82.81A1.41,1.41,0,0,1,32.19,84.22Z"/><path class="cls-2" d="M74.54,63.79a1.42,1.42,0,0,1-1.41-1.42V47A1.42,1.42,0,1,1,76,47V62.37A1.43,1.43,0,0,1,74.54,63.79Z"/><path class="cls-2" d="M66.81,100.19a11.24,11.24,0,0,1-8-19.19L75.41,64.44a11.25,11.25,0,0,1,15.9,15.91L74.76,96.9A11.25,11.25,0,0,1,66.81,100.19ZM83.36,64a8.39,8.39,0,0,0-6,2.47L60.86,83A8.41,8.41,0,0,0,72.75,94.9L89.31,78.35a8.42,8.42,0,0,0-6-14.37Z"/><path class="cls-2" d="M62.4,91.69h0A1.42,1.42,0,0,1,61,90.22a8.71,8.71,0,0,1,2.56-5.87L67,80.9a1.42,1.42,0,0,1,2,2l-3.44,3.44a5.89,5.89,0,0,0-1.73,4A1.42,1.42,0,0,1,62.4,91.69Z"/><path class="cls-2" d="M81.7,89.94l-2.32-1.63a.37.37,0,0,0-.06.09c.27-.56.08-2.89-3.91-6.88-5.25-5.24-8.53-4.91-8.57-4.9a1.41,1.41,0,0,1-1.62-1.15,1.43,1.43,0,0,1,1.16-1.65c.47-.08,4.71-.62,11,5.7C83.9,86,82.12,89.34,81.7,89.94Z"/><circle class="cls-3" cx="85.72" cy="57.21" r="18.52"/><circle class="cls-4" cx="85.72" cy="57.21" r="14.02"/><path class="cls-5" d="M89.32,63.78H78.72v-2h10.6a2.15,2.15,0,0,0,2-1.4l1.35-3.66a1,1,0,0,0,0-.24.7.7,0,0,0-.7-.7h-4.3V51.39a.62.62,0,0,0-1.17-.26l-1.64,3.46a3.85,3.85,0,0,1-3.46,2.19H78.72v-2h2.73a1.83,1.83,0,0,0,1.65-1.05l1.64-3.46a2.62,2.62,0,0,1,5,1.12v2.39H92a2.7,2.7,0,0,1,2.7,2.7,2.73,2.73,0,0,1-.17.93L93.2,61.07A4.14,4.14,0,0,1,89.32,63.78Z"/><line class="cls-4" x1="89.97" y1="38.97" x2="90.81" y2="33.96"/><line class="cls-4" x1="96.25" y1="41.16" x2="99.15" y2="37.01"/><circle class="cls-6" cx="88.68" cy="57.21" r="13.6"/></g></g></svg>