<svg id="Layer_1" data-name="Layer 1" xmlns="http://www.w3.org/2000/svg" viewBox="0 0 106.3 107.72"><defs><style>.cls-1{fill:#fff;}.cls-2{fill:#edcc9d;}.cls-3{fill:#231815;}</style></defs><ellipse class="cls-1" cx="53.15" cy="53.86" rx="53.15" ry="53.86"/><path class="cls-2" d="M44.65,53.12c-3.56-3.79-9-4.36-14-3.84-2.51.26-8.46.76-8.32,4,.19,4.31,2.31,8.34,4.85,11.88A8.93,8.93,0,0,1,29,68.66a5.49,5.49,0,0,1-1.53,4.46,7,7,0,0,0-1.38,1.75c-.56,1.34.86,2.45,1.65,3.38C30,81,32.41,83.82,35.66,85.41a3.24,3.24,0,0,0,2.49.37,3.49,3.49,0,0,0,1.54-1.7,3.7,3.7,0,0,1,1.62-1.56A18.43,18.43,0,0,1,47,80.71a36.56,36.56,0,0,0,7.27-2.21c2.26-1,4.51-2.22,5.77-4.27s1.17-5-.77-6.51c-1.12-.84-2.6-1-3.92-1.55-2.7-1.06-4.59-3.45-6.07-5.89S46.62,55.21,44.65,53.12Z"/><path class="cls-3" d="M43.32,89.8l-2.54-.89,1.46-4.15a4.81,4.81,0,0,1,4.42-3.22c7.45-.24,16-2,16-13.43-8.33-2.56-10.28-7.24-12-11.38-2-4.92-3.67-8.82-16.28-8.82a71.85,71.85,0,0,0-9.92.78,2.64,2.64,0,0,0-2.2,2.63c0,15.68,9,20.62,9.41,20.82.1-.07,5.4-5,5.4-21.53h2.7c0,17.91-6,23.32-6.28,23.54a2.77,2.77,0,0,1-3.07.37c-.43-.22-10.85-5.79-10.85-23.2A5.34,5.34,0,0,1,24.08,46a76.7,76.7,0,0,1,10.3-.8c14.41,0,16.63,5.33,18.77,10.48,1.63,3.93,3.18,7.65,10.32,9.84a2.71,2.71,0,0,1,1.88,2.57c0,15.51-14,16-18.6,16.12a2.13,2.13,0,0,0-2,1.42Z"/><path class="cls-3" d="M29.74,66a23.49,23.49,0,0,1-4.26-9.39L28.1,56a21.07,21.07,0,0,0,3.74,8.33Z"/><path class="cls-3" d="M59.6,17.24,61.7,25a.86.86,0,0,1-.58,1l-25.3,7.39a.84.84,0,0,1-1-.59L32.63,25a.83.83,0,0,1,.58-1l25.34-7.35A.85.85,0,0,1,59.6,17.24ZM57.49,19.7,35.77,26a.17.17,0,0,0,0,.15l1.12,4.18L58.58,24a.15.15,0,0,0,0-.15Z"/><rect class="cls-3" x="41" y="32.47" width="16.27" height="2.69" transform="translate(-7.55 15.25) rotate(-16.4)"/><rect class="cls-3" x="40.97" y="37.29" width="21.77" height="2.69" transform="translate(-8.8 16.21) rotate(-16.4)"/><path class="cls-3" d="M68.69,72.52l-.76-2.58,9.17-2.7L73.62,55.43l2.58-.76,3.91,13.26a1.19,1.19,0,0,1-.8,1.47Z"/><path class="cls-3" d="M70.8,45.87,63.58,21.39l-3.9,1.15L58.92,20l5.35-1.58a1.18,1.18,0,0,1,1.47.8l7.64,25.93Z"/><path class="cls-3" d="M32.11,42.74l-3.7-12.56a1.17,1.17,0,0,1,.8-1.46l5.35-1.58.77,2.58-3.91,1.15L34.7,42Z"/><path class="cls-3" d="M92,53.74,81,38.8a7.43,7.43,0,0,0-5.95-3h-6.2V33.1H75a10.12,10.12,0,0,1,8.12,4.1l11,14.94Z"/><path class="cls-3" d="M88.34,63,82.5,58.48a5.36,5.36,0,0,0-3.31-1.14,11.53,11.53,0,0,1-6.37-1.91L64.43,49.9a3.83,3.83,0,0,1-1.77-3.33,4,4,0,0,1,5.21-3.87l9.7,3.1-.82,2.57-9.7-3.1a.92.92,0,0,0-.35-.05,1.34,1.34,0,0,0-1.35,1.35,1.17,1.17,0,0,0,.56,1.08l8.39,5.53a8.85,8.85,0,0,0,4.89,1.47,8.07,8.07,0,0,1,5,1.71L90,60.91Z"/></svg>