<svg id="Layer_1" data-name="Layer 1" xmlns="http://www.w3.org/2000/svg" viewBox="0 0 127.68 140.77"><defs><style>.cls-1{font-size:29.71px;font-family:NanumSquareEB, NanumSquare;}.cls-1,.cls-2{fill:#ff813f;}</style></defs><text class="cls-1" transform="translate(31.81 64.09)">주의<tspan x="0" y="33.08">성분</tspan></text><path class="cls-2" d="M114,28a2.13,2.13,0,0,0-2.12,2.13v93.65H23.67a2.13,2.13,0,1,0,0,4.25H114a2.13,2.13,0,0,0,2.13-2.13V30.13A2.13,2.13,0,0,0,114,28Z"/><path class="cls-2" d="M106.13,115.68V19.91A2.12,2.12,0,0,0,104,17.78H95.24V22h6.64v91.52H15.81V22h6.64V17.78H13.69a2.13,2.13,0,0,0-2.13,2.13v95.77a2.12,2.12,0,0,0,2.13,2.12H104A2.12,2.12,0,0,0,106.13,115.68Z"/><path class="cls-2" d="M31.52,27.06H86.18a2.93,2.93,0,0,0,2.93-2.93V15.68a2.93,2.93,0,0,0-2.93-2.93H31.52a2.94,2.94,0,0,0-2.94,2.93v8.45A2.94,2.94,0,0,0,31.52,27.06Z"/></svg>