<svg id="Layer_1" data-name="Layer 1" xmlns="http://www.w3.org/2000/svg" viewBox="0 0 107.72 107.72"><defs><style>.cls-1{fill:#fff;}.cls-2{fill:#b9ea00;}.cls-3{fill:#231815;}</style></defs><circle class="cls-1" cx="53.86" cy="53.86" r="53.86"/><path class="cls-2" d="M59,43.86l-.21,6.55a1.48,1.48,0,0,1-.25.93,1.43,1.43,0,0,1-1,.36,84.39,84.39,0,0,1-8.56.52A37.23,37.23,0,0,1,49.39,59l5.13-.26a2.33,2.33,0,0,1,1.85.45,2.36,2.36,0,0,1,.38,1.68A45.85,45.85,0,0,0,57,67.27a1.34,1.34,0,0,0,.35.9,1.31,1.31,0,0,0,.8.22l5.61.31-.05-7.16a.93.93,0,0,1,.12-.55c.18-.24.53-.23.83-.2a38.25,38.25,0,0,0,9.56-.27l-.5-7.8-6.7.12a.75.75,0,0,1-.51-.12.71.71,0,0,1-.18-.48l-1.13-8.89a58.07,58.07,0,0,0-5.9-.09"/><path class="cls-3" d="M65.67,70.16H54.48a.4.4,0,0,1-.4-.4V60.5H44.83a.39.39,0,0,1-.4-.39V48.92a.4.4,0,0,1,.4-.4h9.25V39.27a.4.4,0,0,1,.4-.4H65.67a.4.4,0,0,1,.4.4v9.25h9.25a.4.4,0,0,1,.4.4V60.11a.39.39,0,0,1-.4.39H66.07v9.26A.4.4,0,0,1,65.67,70.16ZM57,67.24h6.17V58a.4.4,0,0,1,.39-.4h9.26V51.43H63.55a.4.4,0,0,1-.39-.4V41.78H57V51a.39.39,0,0,1-.39.4H47.34v6.16H56.6A.39.39,0,0,1,57,58Z"/><rect class="cls-3" x="23.44" y="24.21" width="2.91" height="60.6"/><path class="cls-3" d="M82,80H38.16a3.59,3.59,0,0,1-3.59-3.59V32.6A3.6,3.6,0,0,1,38.16,29H82a3.6,3.6,0,0,1,3.59,3.6V76.43A3.59,3.59,0,0,1,82,80ZM38.16,31.92a.67.67,0,0,0-.68.68V76.43a.68.68,0,0,0,.68.68H82a.68.68,0,0,0,.68-.68V32.6a.67.67,0,0,0-.68-.68Z"/><path class="cls-3" d="M36,41.78H24.9a1.46,1.46,0,1,1,0-2.91H36a1.46,1.46,0,1,1,0,2.91Z"/><path class="cls-3" d="M36,70.16H24.9a1.46,1.46,0,0,1,0-2.92H36a1.46,1.46,0,1,1,0,2.92Z"/></svg>