<svg xmlns="http://www.w3.org/2000/svg" viewBox="0 0 119.16 118.05"><defs><style>.cls-1{isolation:isolate;}.cls-2,.cls-5{fill:#333;}.cls-3{fill:#fff;}.cls-4{fill:none;stroke-width:2.55px;}.cls-4,.cls-5{stroke:#333;stroke-miterlimit:10;}.cls-5{stroke-width:0.28px;}.cls-6{fill:#faed00;mix-blend-mode:multiply;}</style></defs><g class="cls-1"><g id="Layer_1" data-name="Layer 1"><path class="cls-2" d="M44.86,80.93a5.31,5.31,0,0,1-5.21-4.4,5.28,5.28,0,1,1,3.78-9.61l6.81-6.82a5.27,5.27,0,1,1,9.61-3.77,5.27,5.27,0,0,1,2.86,8.93,5.28,5.28,0,0,1-6.63.68l-6.82,6.82a5.27,5.27,0,0,1-4.4,8.17Zm-4-7a1.32,1.32,0,0,1,1.31,1.45A2.63,2.63,0,0,0,43,77.53a2.65,2.65,0,0,0,3.75-3.75l-.07-.06,0,0a1.28,1.28,0,0,1-.45-.94,1.32,1.32,0,0,1,.39-1l8.53-8.54a1.32,1.32,0,0,1,1.91.06l0,0,.07.08a2.65,2.65,0,1,0,1.61-4.51,1.32,1.32,0,0,1-1.44-1.44,2.65,2.65,0,0,0-.76-2.13,2.71,2.71,0,0,0-3.74,0,2.64,2.64,0,0,0,0,3.75l.07.07a1.35,1.35,0,0,1,.47,1,1.3,1.3,0,0,1-.36,1l-8.54,8.54a1.27,1.27,0,0,1-1,.38,1.31,1.31,0,0,1-1-.44l0-.06-.06-.07A2.65,2.65,0,1,0,40.79,74Z"/><path class="cls-2" d="M84.43,87.89,71.17,96.13H29a1.31,1.31,0,0,1-1.31-1.31V63.91c0-21.4,7.64-27.44,8-27.69a1.34,1.34,0,0,1,.79-.26H77.31a1.27,1.27,0,0,1,.79.26c.33.25,8,6.29,8,27.69V85.26A2.71,2.71,0,0,1,84.43,87.89ZM71.17,93.38l12.28-7.5v-22c0-15.76-4.31-22.58-6.14-24.76-1.82,2.17-6.14,9-6.14,24.76Zm-40.86.13H68.55V63.91c0-14.51,3.51-22,5.87-25.33H37c-1.3,1.32-6.64,7.79-6.64,25.33Z"/><path class="cls-2" d="M77.31,38.58H36.44a1.31,1.31,0,0,1-1.31-1.31V24a1.32,1.32,0,0,1,1.31-1.32H77.31A1.31,1.31,0,0,1,78.62,24V37.27A1.31,1.31,0,0,1,77.31,38.58ZM37.76,36H76V25.26H37.76Z"/><path class="cls-2" d="M67.84,34H65.21v-2.9H48.54V34H45.91V29.78a1.32,1.32,0,0,1,1.32-1.32h19.3a1.32,1.32,0,0,1,1.31,1.32Z"/><circle class="cls-3" cx="91.62" cy="80.24" r="18.52"/><circle class="cls-4" cx="91.62" cy="80.24" r="14.02"/><path class="cls-5" d="M95.22,86.81H84.62v-2h10.6a2.15,2.15,0,0,0,2-1.4l1.35-3.66a.67.67,0,0,0,0-.24.7.7,0,0,0-.7-.7h-4.3V74.42a.62.62,0,0,0-1.17-.26l-1.64,3.46a3.85,3.85,0,0,1-3.46,2.19H84.62v-2h2.73a1.83,1.83,0,0,0,1.65-1l1.64-3.46a2.62,2.62,0,0,1,5,1.12v2.39h2.3a2.7,2.7,0,0,1,2.7,2.7,2.73,2.73,0,0,1-.17.93L99.1,84.1A4.14,4.14,0,0,1,95.22,86.81Z"/><line class="cls-4" x1="95.59" y1="62" x2="96.43" y2="56.99"/><line class="cls-4" x1="101.87" y1="64.19" x2="104.77" y2="60.04"/><circle class="cls-6" cx="94.73" cy="78.69" r="13.6"/></g></g></svg>