<svg id="Layer_1" data-name="Layer 1" xmlns="http://www.w3.org/2000/svg" viewBox="0 0 45.1 45.1"><defs><style>.cls-1{fill:none;stroke:#00c17c;stroke-linecap:round;stroke-linejoin:round;stroke-width:1.42px;}.cls-2{fill:#00c17c;}</style></defs><g id="g1269"><path id="rect1262" class="cls-1" d="M9,26.52H7.83A2.92,2.92,0,0,1,4.9,23.59V10.7A2.92,2.92,0,0,1,7.83,7.77H26.59a2.92,2.92,0,0,1,2.93,2.93V23.59a2.92,2.92,0,0,1-2.93,2.93H14.28"/><path id="path1265" class="cls-1" d="M9,26.52v4.69l5.28-4.69"/></g><g id="g1275"><path id="path1271" class="cls-1" d="M36.1,32.65h1.17a2.93,2.93,0,0,0,2.93-2.94V16.82a2.93,2.93,0,0,0-2.93-2.93H32.9M15.58,29.71a2.93,2.93,0,0,0,2.93,2.94H30.82"/><path id="path1273" class="cls-1" d="M36.1,32.65v4.68l-5.28-4.68"/></g><circle class="cls-2" cx="12.2" cy="17.14" r="1.18"/><circle class="cls-2" cx="17.21" cy="17.14" r="1.18"/><circle class="cls-2" cx="22.22" cy="17.14" r="1.18"/></svg>