<svg id="Layer_1" data-name="Layer 1" xmlns="http://www.w3.org/2000/svg" viewBox="0 0 45.1 45.1"><defs><style>.cls-1{fill:none;stroke:#00c17c;stroke-linecap:round;stroke-linejoin:round;stroke-width:1.42px;}</style></defs><path class="cls-1" d="M39.27,32s-4.58-3.2-5.45-12c-.66-6.6-5.75-8.81-10.08-8.31-3.63.41-8,2.82-9,6-.67,2.15-5.85,2.45-7.26,3.36-.85.54-1.56,1.48-.44,3a2,2,0,0,1,.33.68,5.54,5.54,0,0,0,2.94,3.53c2.67,1.39,9-.53,10.84,2,2.29,3.14,2.42,8.53,2.42,8.53"/><path class="cls-1" d="M31.31,14.18c3.14,3.51.67,11-4,12.39-4.94,1.5-7.58-3.28-3.73-5.92,3.09-2.12,3.67-4.21,3.27-6"/><path class="cls-1" d="M12.87,13.5C13,13.4,17,11,17,8.36a2.27,2.27,0,0,0-4.26-1.08A2.27,2.27,0,0,0,8.5,8.36c0,2.59,4,5,4.16,5.14l.1.06Z"/></svg>