<svg id="Layer_1" data-name="Layer 1" xmlns="http://www.w3.org/2000/svg" viewBox="0 0 107.72 107.72"><defs><style>.cls-1{fill:#fff;}.cls-2{fill:#231815;}.cls-3{fill:#f29600;}</style></defs><circle class="cls-1" cx="53.86" cy="53.86" r="53.86"/><path class="cls-2" d="M33.68,88.87,31.18,88l1.91-5.65L20.31,78.18,18,84.92l-2.49-.85,2.27-6.73a2.67,2.67,0,0,1,3.35-1.67l12.78,4.2a2.65,2.65,0,0,1,1.67,3.35Z"/><path class="cls-2" d="M20.64,77.58,17.4,61.85a6.4,6.4,0,0,1-.13-1.31A6.49,6.49,0,0,1,19.17,56L29.52,45.6l1.87,1.87L21,57.82a3.9,3.9,0,0,0-1.12,2.72,4,4,0,0,0,.07.78l3.24,15.73Z"/><path class="cls-2" d="M74.69,88.87l-1.91-5.65a2.65,2.65,0,0,1,1.67-3.35l12.78-4.2a2.68,2.68,0,0,1,3.35,1.67l2.27,6.73-2.49.85-2.28-6.73-12.8,4.18L77.19,88Z"/><path class="cls-2" d="M87.73,77.58l-2.58-.53,3.24-15.73a4,4,0,0,0,.07-.78,3.9,3.9,0,0,0-1.12-2.72L77,47.47l1.87-1.87L89.2,56a6.49,6.49,0,0,1,1.9,4.58A6.4,6.4,0,0,1,91,61.85Z"/><polygon class="cls-2" points="31.77 61.44 29.14 61.44 29.14 24.77 38.21 24.77 38.21 27.4 31.77 27.4 31.77 61.44"/><polygon class="cls-2" points="79.23 61.44 76.6 61.44 76.6 27.4 70.18 27.4 70.18 24.77 79.23 24.77 79.23 61.44"/><rect class="cls-2" x="38.16" y="82.13" width="36.15" height="2.64"/><path class="cls-2" d="M33.34,81.39,31.1,80l2.45-4a14.45,14.45,0,0,0,2.18-7.64V63.33a10.51,10.51,0,0,1,.75-3.92l1.79-4.47a1.37,1.37,0,0,0,.09-.49,1.32,1.32,0,0,0-1.31-1.32,1.3,1.3,0,0,0-1.23.83l-1.51,3.77a14.34,14.34,0,0,1-2.14,3.67L28,66.56,26,64.91l4.13-5.15a11.62,11.62,0,0,0,1.75-3L33.37,53A4,4,0,0,1,41,54.45a3.83,3.83,0,0,1-.28,1.46l-1.79,4.48a7.77,7.77,0,0,0-.57,2.94V68.4a17.08,17.08,0,0,1-2.57,9Z"/><path class="cls-2" d="M75,81.39l-2.46-4a17.16,17.16,0,0,1-2.56-9V63.33a7.77,7.77,0,0,0-.57-2.94l-1.79-4.48a3.83,3.83,0,0,1-.28-1.46A4,4,0,0,1,75,53l1.51,3.77a11.62,11.62,0,0,0,1.75,3l4.13,5.15-2.06,1.65L76.2,61.4a14.34,14.34,0,0,1-2.14-3.67L72.55,54a1.3,1.3,0,0,0-1.23-.83A1.32,1.32,0,0,0,70,54.45a1.37,1.37,0,0,0,.09.49l1.79,4.47a10.51,10.51,0,0,1,.75,3.92V68.4A14.45,14.45,0,0,0,74.82,76l2.45,4Z"/><path class="cls-2" d="M67.88,20.81H40.49a.81.81,0,0,0-.81.81v8.93a.81.81,0,0,0,.81.81H67.88a.81.81,0,0,0,.81-.81V21.62A.81.81,0,0,0,67.88,20.81ZM42.32,27.92V24.25a.8.8,0,0,1,.8-.8H65.25a.8.8,0,0,1,.8.8v3.67a.8.8,0,0,1-.8.8H43.12A.8.8,0,0,1,42.32,27.92Z"/><path class="cls-3" d="M47.83,52.56a33.49,33.49,0,0,1,9-1.06,4.26,4.26,0,0,1,1.34.18c1.43.51,2,2.26,2,3.78A22.66,22.66,0,0,1,59.64,60L58,68.71c-.34,1.84-.81,3.89-2.38,4.9a1.19,1.19,0,0,1-.76.24,1.16,1.16,0,0,1-.47-.2c-2.23-1.42-2.42-4.51-3-7.08-1-4.28-3.86-8.29-3.34-12.66"/><path class="cls-2" d="M58.89,71.11a55.57,55.57,0,0,0,3.45-14,.13.13,0,0,0,0-.06c.29-2.77.19-5-.46-5.93a6.52,6.52,0,0,0-3-2.19l2-6.93a1.28,1.28,0,0,0-.55-1.36,6.63,6.63,0,0,0-2.77-.83h-.18l.28-2.29a1.3,1.3,0,0,0-.68-1.3,6.84,6.84,0,0,0-2.85-.55,6.76,6.76,0,0,0-2.84.55,1.29,1.29,0,0,0-.68,1.3l.28,2.29h-.18a6.72,6.72,0,0,0-2.78.83,1.32,1.32,0,0,0-.55,1.36l2,6.93a6.62,6.62,0,0,0-2.94,2.19c-1,1.34-.71,5.58.18,10.15a.4.4,0,0,0,0,.15,47.42,47.42,0,0,0,3.59,11.38c1.27,2.47,2.55,3.67,3.91,3.67s2.63-1.2,3.9-3.67c.25-.48.5-1,.74-1.59v0A.69.69,0,0,0,58.89,71.11ZM57.47,41.26a8.23,8.23,0,0,1,2.4.56l-1.94,6.71c-.5-.13-1.31-.23-1.75-.3l1.08-7Zm-3.29-4.14a5.84,5.84,0,0,1,2.12.35L55.11,48.08c-.34,0-.88,0-.92,0s-.59,0-.93,0l-1.2-10.61A5.84,5.84,0,0,1,54.18,37.12Zm-5.68,4.7a8.15,8.15,0,0,1,2.4-.56h.21l1.08,7c-.44.07-1.25.17-1.75.3Zm8.76,29.52q-.21.45-.42.87c-1,1.84-1.92,2.9-2.65,2.9s-1.71-1.06-2.66-2.9a37.33,37.33,0,0,1-2.63-7.27c-.35-1.56-.62-2.62-.74-3.23a17.32,17.32,0,0,1,3.5-.93l-.22-1.39a19.74,19.74,0,0,0-3.55.91c-.71-4-.86-7.49-.27-8.32,1.78-2.48,6.52-2.52,6.56-2.52S59,49.5,60.75,52c.36.52.45,2,.29,4.06a14.85,14.85,0,0,0-4-.71L57,56.73a13.16,13.16,0,0,1,3.93.75c-.06.47-.19,1.82-.43,2.87A51,51,0,0,1,57.82,70C57.58,70.59,57.52,70.82,57.26,71.34Z"/><path class="cls-2" d="M54.19,77c-1.56,0-3-1.29-4.35-3.93a47.87,47.87,0,0,1-3.63-11.51,1,1,0,0,1,0-.22c-.48-2.46-1.47-8.54-.09-10.47a6.76,6.76,0,0,1,2.75-2.17L47,42.18a1.79,1.79,0,0,1,.75-1.9,7,7,0,0,1,2.68-.87l-.22-1.79a1.79,1.79,0,0,1,.94-1.8,8.77,8.77,0,0,1,6.14,0,1.79,1.79,0,0,1,.94,1.8L58,39.41a6.92,6.92,0,0,1,2.67.87,1.78,1.78,0,0,1,.76,1.88L59.53,48.7a6.83,6.83,0,0,1,2.76,2.18c.69,1,.88,3.08.55,6.27a56.6,56.6,0,0,1-3.48,14.12,1.21,1.21,0,0,1-.09.2c-.24.56-.49,1.11-.74,1.61C57.17,75.72,55.74,77,54.19,77ZM50.76,39.87l.05.48a6.37,6.37,0,0,0-2.56.75.81.81,0,0,0-.34.84L50,49.27l-.4.17a6,6,0,0,0-2.73,2c-.78,1.09-.68,4.93.26,9.77l0,.16a47.37,47.37,0,0,0,3.54,11.25c2.33,4.51,4.62,4.51,6.95,0,.24-.47.48-1,.72-1.56l.06-.15a56.22,56.22,0,0,0,3.42-13.81c.29-2.88.16-4.92-.37-5.66a5.94,5.94,0,0,0-2.73-2l-.41-.17,2.11-7.36a.78.78,0,0,0-.35-.81,6.27,6.27,0,0,0-2.55-.75l-.5-.05-.12-.51.28-2.29a.81.81,0,0,0-.42-.81,8.08,8.08,0,0,0-5.23,0,.79.79,0,0,0-.42.81l.33,2.8-.51,0-.21-.47ZM54.19,75.6c-1.21,0-2.35-1.72-3.1-3.17a36.83,36.83,0,0,1-2.66-7.37c-.16-.71-.31-1.31-.43-1.81s-.26-1.1-.33-1.45l-.08-.4.39-.15a18.91,18.91,0,0,1,3.12-.87L51,60a19.5,19.5,0,0,0-3,.8l-.55.2-.1-.57c-.61-3.47-1-7.58-.19-8.69,1.93-2.7,6.91-2.73,7-2.73s5,0,7,2.73c.43.6.56,2.07.38,4.37l-.05.63-.6-.2a14.45,14.45,0,0,0-3.36-.65l0,.43a13.17,13.17,0,0,1,3.58.74l.36.14-.07.59c-.07.62-.2,1.77-.41,2.71a51.58,51.58,0,0,1-2.67,9.76c-.1.22-.16.38-.22.53s-.2.47-.36.8-.28.6-.42.88C56.53,73.88,55.39,75.6,54.19,75.6ZM48.73,62c.06.28.14.61.23,1s.26,1.11.42,1.81A36.34,36.34,0,0,0,52,72c1.08,2.09,1.91,2.64,2.23,2.64s1.14-.55,2.22-2.64c.14-.27.27-.55.41-.84h0c.15-.31.23-.51.32-.74l.23-.55A50.44,50.44,0,0,0,60,60.27c.18-.84.3-1.84.38-2.46a14.05,14.05,0,0,0-3.43-.59l-.49,0,.14-2.38.49,0a16.65,16.65,0,0,1,3.51.55,7,7,0,0,0-.24-3.12C58.73,50,54.23,50,54.18,50S49.64,50,48,52.27c-.39.54-.42,3.29.26,7.38a19.58,19.58,0,0,1,3.09-.74l.48-.08.37,2.36-.49.08A16.81,16.81,0,0,0,48.73,62ZM50.1,49.13l-2.18-7.54.33-.2a9,9,0,0,1,2.6-.62l.59,0,.15.43,1.16,7.47-.87.13c-.43.07-1,.14-1.32.24Zm-1-7L50.78,48c.28-.06.58-.1.85-.14l-.94-6A10.83,10.83,0,0,0,49.09,42.11Zm1.81-.85v0h0Zm7.37,7.87L57.8,49c-.35-.1-.88-.17-1.31-.24l-.87-.13,1.23-7.91.67,0a8.86,8.86,0,0,1,2.59.62l.34.2Zm-1.53-1.31.85.13,1.68-5.84a10.83,10.83,0,0,0-1.6-.33Zm-1.2.77-.46,0c-.33,0-.85,0-.89,0s-.57,0-.9,0l-.47,0L51.54,37.17l.32-.15a6.55,6.55,0,0,1,2.32-.39A6.24,6.24,0,0,1,56.5,37l.33.15ZM52.6,37.8l1.1,9.77h1l1.1-9.77A8.05,8.05,0,0,0,52.6,37.8Z"/></svg>